<svg width="30.000000" height="30.000000" viewBox="0 0 30 30" fill="none" xmlns="http://www.w3.org/2000/svg" xmlns:xlink="http://www.w3.org/1999/xlink">
	<desc>
			Created with Pixso.
	</desc>
	<defs/>
	<path id="Vector" d="M15 0C6.71552 0 0 6.75635 0 15.0913C0 22.6235 5.48547 28.8667 12.657 30L12.657 19.4526L8.84698 19.4526L8.84698 15.0913L12.657 15.0913L12.657 11.7666C12.657 7.98486 14.895 5.896 18.3225 5.896C19.9635 5.896 21.6795 6.19043 21.6795 6.19043L21.6795 9.90283L19.7895 9.90283C17.925 9.90283 17.3445 11.0664 17.3445 12.2603L17.3445 15.0913L21.504 15.0913L20.8395 19.4526L17.3445 19.4526L17.3445 30C24.5145 28.8682 30 22.6221 30 15.0913C30 6.75635 23.2845 0 15 0Z" fill="#5C5C5E" fill-opacity="1.000000" fill-rule="nonzero"/>
</svg>
