<svg width="30.000000" height="30.000000" viewBox="0 0 30 30" fill="none" xmlns="http://www.w3.org/2000/svg" xmlns:xlink="http://www.w3.org/1999/xlink">
	<desc>
			Created with Pixso.
	</desc>
	<defs/>
	<path id="Vector" d="M15 0C6.66669 0 0 6.6665 0 15C0 23.3335 6.66669 30 15 30C23.3333 30 30 23.3335 30 15C30 6.6665 23.3333 0 15 0ZM15 11.6665C16.8333 11.6665 18.3333 13.1665 18.3333 15C18.3333 16.8335 16.8333 18.3335 15 18.3335C13.1667 18.3335 11.6667 16.8335 11.6667 15C11.6667 13.1665 13.1667 11.6665 15 11.6665ZM19.6667 8.3335C19.6667 7.1665 20.6667 6.3335 21.6667 6.3335C22.6667 6.3335 23.6667 7.3335 23.6667 8.3335C23.6667 9.3335 22.8333 10.3335 21.6667 10.3335C20.5 10.3335 19.6667 9.5 19.6667 8.3335ZM15 26.6665C8.5 26.6665 3.33331 21.5 3.33331 15L8.33331 15C8.33331 18.6665 11.3333 21.6665 15 21.6665C18.6667 21.6665 21.6667 18.6665 21.6667 15L26.6667 15C26.6667 21.5 21.5 26.6665 15 26.6665Z" fill="#5C5C5E" fill-opacity="1.000000" fill-rule="nonzero"/>
</svg>
