<svg width="30.000000" height="30.000000" viewBox="0 0 30 30" fill="none" xmlns="http://www.w3.org/2000/svg" xmlns:xlink="http://www.w3.org/1999/xlink">
	<desc>
			Created with Pixso.
	</desc>
	<defs/>
	<path id="Vector" d="M17.5047 14.7393L13.9953 13.1016C13.6891 12.9595 13.4375 13.1187 13.4375 13.458L13.4375 16.542C13.4375 16.8813 13.6891 17.0405 13.9953 16.8984L17.5031 15.2607C17.8109 15.1172 17.8109 14.8828 17.5047 14.7393ZM15 0C6.71564 0 0 6.71582 0 15C0 23.2842 6.71564 30 15 30C23.2844 30 30 23.2842 30 15C30 6.71582 23.2844 0 15 0ZM15 21.0938C7.32187 21.0938 7.1875 20.4014 7.1875 15C7.1875 9.59863 7.32187 8.90625 15 8.90625C22.6781 8.90625 22.8125 9.59863 22.8125 15C22.8125 20.4014 22.6781 21.0938 15 21.0938Z" fill="#5C5C5E" fill-opacity="1.000000" fill-rule="nonzero"/>
</svg>
